<svg version="1.1" id="Layer_1" xmlns="http://www.w3.org/2000/svg" xmlns:xlink="http://www.w3.org/1999/xlink" x="0px" y="0px"
	 width="100%" viewBox="0 0 1000 750" enable-background="new 0 0 1000 750" xml:space="preserve">
<path fill="#FFFFFF" opacity="1.000000" stroke="none" 
	d="
M896.000000,751.000000 
	C597.333313,751.000000 299.166656,751.000000 1.000000,751.000000 
	C1.000000,501.000000 1.000000,251.000000 1.000000,1.000000 
	C334.333344,1.000000 667.666687,1.000000 1001.000000,1.000000 
	C1001.000000,251.000000 1001.000000,501.000000 1001.000000,751.000000 
	C966.166687,751.000000 931.333313,751.000000 896.000000,751.000000 
M136.990723,390.484100 
	C139.796143,395.712250 130.537338,395.349396 132.274628,400.061218 
	C137.141647,400.061218 141.800751,400.266327 146.421524,399.935669 
	C147.798981,399.837067 149.068970,398.236938 150.388199,397.324799 
	C150.176376,396.871704 149.964539,396.418610 149.752701,395.965546 
	C145.640366,396.547699 144.168716,394.456177 143.919067,390.884430 
	C143.188339,380.429840 142.418381,369.977478 141.568848,359.531982 
	C141.322021,356.497040 142.620041,355.019073 145.432297,354.082672 
	C146.614304,353.689087 147.388046,352.069427 148.895981,350.399719 
	C143.911392,350.399719 140.391129,350.714661 136.955521,350.310303 
	C133.584839,349.913605 132.339615,351.312775 131.320145,354.262695 
	C127.640594,364.909637 123.696640,375.465149 119.377205,387.364655 
	C116.090683,378.221191 113.160240,370.326111 110.413956,362.367523 
	C106.287346,350.408844 106.342201,350.390015 93.871391,350.233063 
	C93.705132,350.230957 93.496597,350.143097 93.379433,350.213867 
	C92.113762,350.978363 90.862473,351.766693 89.607246,352.548492 
	C97.267456,355.094391 97.494080,355.466492 96.689354,362.600739 
	C95.719902,371.195251 94.897583,379.806946 93.860519,388.392944 
	C93.473778,391.594849 93.556007,395.142181 89.350967,396.474579 
	C88.594048,396.714447 88.399475,398.729095 87.863785,400.138733 
	C93.620598,400.138733 98.585854,400.138733 103.751648,400.138733 
	C103.934547,398.738495 104.094116,397.516907 104.254890,396.286102 
	C102.301750,396.008270 100.726395,395.784210 98.432915,395.457977 
	C99.259331,384.484253 100.062584,373.818176 100.865837,363.152100 
	C106.369743,374.560486 110.631416,386.035980 115.022766,397.461670 
	C115.537949,398.802185 116.767014,399.868286 117.665131,401.061615 
	C118.637581,399.884277 119.992294,398.856812 120.521942,397.505859 
	C124.699463,386.850372 128.708069,376.128723 132.808945,365.442902 
	C133.150040,364.554108 133.787216,363.778961 134.756027,362.173462 
	C135.548294,372.038574 136.253799,380.823456 136.990723,390.484100 
M885.938049,364.500000 
	C885.938049,356.410614 885.938049,348.321198 885.938049,340.312836 
	C879.045288,340.312836 872.809875,340.312836 866.571777,340.312836 
	C866.571777,364.015045 866.571777,387.391571 866.571777,410.693268 
	C873.164368,410.693268 879.409424,410.693268 885.938049,410.693268 
	C885.938049,395.418152 885.938049,380.459076 885.938049,364.500000 
M909.826050,356.501984 
	C909.826050,351.075653 909.826050,345.649323 909.826050,340.393402 
	C902.781067,340.393402 896.544250,340.393402 890.367737,340.393402 
	C890.367737,364.054993 890.367737,387.311798 890.367737,410.694458 
	C896.903381,410.694458 903.133362,410.694458 909.825867,410.694458 
	C909.825867,392.755737 909.825867,375.128571 909.826050,356.501984 
M862.024292,395.496826 
	C862.024292,377.078491 862.024292,358.660126 862.024292,340.261963 
	C855.204346,340.261963 848.942383,340.261963 842.819885,340.261963 
	C842.819885,363.920746 842.819885,387.316895 842.819885,410.999756 
	C846.240601,410.999756 849.385620,410.999756 852.530640,410.999756 
	C855.633789,410.999756 858.736938,410.999756 862.024292,410.999756 
	C862.024292,405.780090 862.024292,401.137787 862.024292,395.496826 
M425.626923,400.640167 
	C429.248260,400.375580 432.996216,400.619476 436.468231,399.755066 
	C449.008820,396.632935 457.722107,384.351715 456.674438,371.836670 
	C455.621124,359.253326 446.734772,351.183441 432.315125,350.322754 
	C425.195892,349.897858 418.022278,350.151764 410.887787,350.447998 
	C409.733124,350.495941 408.654297,352.370972 407.540405,353.401459 
	C407.631226,353.894623 407.722046,354.387787 407.812866,354.880981 
	C413.023529,353.421967 413.946899,355.949402 413.891541,359.841156 
	C413.751923,369.651276 413.820312,379.464203 413.761292,389.275726 
	C413.742401,392.416443 413.160980,395.103363 409.489349,396.283966 
	C408.274414,396.674622 407.554932,398.606262 406.115631,400.473175 
	C413.169678,400.473175 418.940796,400.473175 425.626923,400.640167 
M786.591736,355.183258 
	C786.744751,367.451080 787.017700,379.720215 786.883850,391.984894 
	C786.868835,393.362427 784.511841,394.680969 783.314270,396.089203 
	C782.277771,397.308014 781.345520,398.615417 779.801025,400.617676 
	C787.214111,400.617676 793.142883,400.680511 799.069397,400.592957 
	C802.366089,400.544250 805.743042,400.649933 808.939148,399.987885 
	C822.245300,397.231567 830.858948,385.479248 830.127075,371.476105 
	C829.510803,359.683655 820.640198,351.417877 806.541687,350.388367 
	C798.504517,349.801483 790.389404,350.282227 782.571899,350.282227 
	C780.309265,354.818268 783.436829,354.489807 786.591736,355.183258 
M570.940247,396.378571 
	C570.202271,397.622528 569.464294,398.866486 568.312927,400.807373 
	C576.155701,400.807373 583.013000,401.418549 589.697998,400.608307 
	C594.778320,399.992523 600.373230,398.608826 604.446411,395.734741 
	C613.051575,389.662872 611.454895,379.543518 601.907715,375.222504 
	C600.901733,374.767212 599.892883,374.318329 598.710938,373.788208 
	C600.069824,372.818115 601.211243,372.123260 602.213806,371.265961 
	C605.754639,368.238037 607.492859,364.464722 606.638062,359.749786 
	C605.755920,354.883942 602.392578,352.364655 597.969360,351.106873 
	C595.909485,350.521118 593.713135,350.176605 591.573975,350.153748 
	C585.416748,350.087769 579.249023,350.093719 573.105286,350.431702 
	C571.858765,350.500244 570.699097,352.146637 569.499390,353.065643 
	C569.651855,353.500427 569.804321,353.935242 569.956787,354.370026 
	C575.167297,353.670258 576.069214,356.371185 575.961304,360.595520 
	C575.719055,370.086975 575.852356,379.587860 575.817627,389.084869 
	C575.806213,392.206665 575.488342,395.176697 570.940247,396.378571 
M533.116333,379.288910 
	C534.962463,380.287323 537.388794,380.850067 538.533752,382.374939 
	C540.908081,385.537048 542.465576,389.297913 544.620361,392.644226 
	C546.223083,395.133301 547.917786,397.735016 550.139954,399.614594 
	C553.824463,402.730957 560.752625,401.223053 561.884338,397.271484 
	C551.236816,394.950714 549.543396,384.513458 543.506348,377.851685 
	C544.292603,377.275909 544.545044,377.059906 544.825500,376.890167 
	C553.193909,371.824799 556.637207,365.669678 554.692017,359.242645 
	C552.941956,353.460388 546.716187,350.181641 537.399536,350.160492 
	C531.091919,350.146179 524.784302,350.157776 518.227966,350.157776 
	C518.028198,351.585846 517.856934,352.810608 517.609253,354.581390 
	C522.992065,353.456024 523.351624,356.497467 523.288635,360.303772 
	C523.128662,369.959656 523.142456,379.619293 523.176636,389.277069 
	C523.188110,392.515411 522.773438,395.127716 518.918518,396.095123 
	C517.856079,396.361786 517.216614,398.314178 515.934387,400.127563 
	C522.479553,400.127563 527.634277,399.962982 532.771973,400.188049 
	C535.954651,400.327454 536.498047,398.985992 535.837708,396.371521 
	C529.930908,395.205688 527.751526,384.971069 533.116333,379.288910 
M734.906555,372.349884 
	C734.890625,378.174927 734.874939,383.999939 734.858826,389.824982 
	C734.850830,392.699066 734.079895,394.905914 730.934631,395.974304 
	C729.636475,396.415222 728.729309,398.007141 727.644287,399.075531 
	C733.831482,400.138458 739.292419,400.305573 744.728394,400.010773 
	C745.953796,399.944305 747.091919,398.267670 748.270203,397.332275 
	C748.215576,396.854340 748.160950,396.376373 748.106323,395.898438 
	C742.199402,396.889099 741.812744,393.494446 741.933838,389.559784 
	C742.035767,386.250824 741.954834,382.936249 741.954834,379.821960 
	C746.544556,378.261749 749.188904,379.658081 751.082031,383.677460 
	C752.984375,387.716278 755.364746,391.558899 757.835388,395.288971 
	C759.081238,397.169891 760.751221,399.000153 762.650330,400.170258 
	C766.583984,402.593842 772.450256,400.808868 773.224243,397.268433 
	C762.824280,394.803284 761.098694,384.479797 754.934937,377.833466 
	C756.632385,376.776001 757.890198,376.052429 759.085754,375.237518 
	C765.022705,371.190460 767.670898,365.644745 766.331482,360.068146 
	C764.742554,353.453094 759.610046,351.102814 753.724915,350.657501 
	C746.450928,350.107147 739.111694,350.268646 731.807312,350.428864 
	C730.686401,350.453491 729.601501,352.122375 728.500000,353.030792 
	C728.377991,353.641998 728.255981,354.253174 728.134033,354.864380 
	C735.179077,352.999146 735.049438,356.907166 734.946899,360.903137 
	C734.857300,364.396057 734.915527,367.892761 734.906555,372.349884 
M636.008667,351.350342 
	C632.410950,353.955475 628.155212,355.992767 625.330872,359.265320 
	C613.910522,372.498169 618.527527,394.141907 633.564697,399.472351 
	C643.988342,403.167358 656.391663,399.560547 663.230896,390.845612 
	C670.286377,381.855164 671.028992,368.078308 664.945618,359.032837 
	C659.343506,350.703003 648.868469,347.753143 636.008667,351.350342 
M337.470551,376.600128 
	C337.785248,375.064606 338.099915,373.529083 338.431885,371.909302 
	C332.102417,371.909302 326.329620,371.909302 320.282745,371.909302 
	C320.508240,367.222504 320.641663,362.759186 321.000000,358.314026 
	C321.079376,357.329315 321.960480,355.582855 322.460327,355.587158 
	C327.074524,355.627167 331.816254,355.451782 336.219940,356.548004 
	C337.560852,356.881866 337.968201,360.965881 338.955597,363.764587 
	C339.804749,363.656799 341.194000,363.480499 342.631622,363.298065 
	C343.232147,358.653107 343.790924,354.331238 344.310852,350.309753 
	C332.758301,350.309753 321.784943,350.223328 310.816437,350.414886 
	C309.384644,350.439880 307.977814,351.893372 306.559418,352.685181 
	C306.679199,353.219971 306.798950,353.754761 306.918732,354.289551 
	C310.373199,354.239685 312.991211,354.781830 312.906128,359.001251 
	C312.698120,369.318787 312.827911,379.642700 312.728180,389.963165 
	C312.699310,392.952118 311.884979,395.397095 308.341003,396.305450 
	C307.183350,396.602173 306.455688,398.576477 305.161163,400.266968 
	C318.593933,400.266968 330.819916,400.266968 343.225403,400.266968 
	C343.977539,395.364441 344.670288,390.848785 345.363068,386.333130 
	C344.855743,385.974030 344.348450,385.614899 343.841156,385.255798 
	C342.584961,386.626282 341.310547,387.980560 340.076996,389.371094 
	C338.434326,391.222717 337.131470,394.153595 335.131378,394.739746 
	C331.557709,395.787048 327.573822,395.545532 323.757324,395.613525 
	C321.286682,395.657562 319.754028,394.554138 319.848083,391.664581 
	C319.998627,387.039368 319.888397,382.405670 319.888397,376.994476 
	C325.839355,376.994476 331.283325,376.994476 337.470551,376.600128 
M490.471680,350.294037 
	C483.980560,350.298218 477.483948,350.160889 471.002563,350.414368 
	C469.535461,350.471771 468.121460,351.887299 467.686005,352.126556 
	C469.950256,354.855408 472.669647,356.612030 472.737976,358.466278 
	C473.130096,369.109375 473.082581,379.782562 472.695496,390.427795 
	C472.625793,392.344177 470.350372,394.232697 468.959900,396.030914 
	C467.971008,397.309845 466.758240,398.415680 465.025604,400.257629 
	C478.745941,400.257629 490.984619,400.257629 503.380371,400.257629 
	C504.133453,395.378265 504.828735,390.873291 505.514557,386.429779 
	C501.999695,385.300934 500.901733,386.811707 499.974213,389.699158 
	C499.347290,391.650818 497.572906,394.279083 495.890381,394.639923 
	C491.728302,395.532593 487.320099,395.475433 483.020050,395.380554 
	C482.008545,395.358246 480.231537,393.722931 480.176270,392.751709 
	C479.888031,387.687622 480.041870,382.598358 480.041870,377.044373 
	C486.494507,377.044373 492.080139,377.044373 497.762878,377.044373 
	C498.039978,375.011932 498.249420,373.475708 498.492249,371.694580 
	C495.238770,371.843536 492.431427,372.024872 489.621460,372.086182 
	C486.661530,372.150787 483.699097,372.100677 481.007599,372.100677 
	C481.007599,367.320099 480.895325,363.017731 481.083801,358.728607 
	C481.133118,357.606445 482.105438,355.581970 482.673615,355.574982 
	C487.134277,355.520081 491.768463,355.240082 495.974670,356.394257 
	C497.504974,356.814209 498.018524,360.939514 499.162140,363.788269 
	C499.975342,363.670990 501.369202,363.470001 502.678528,363.281189 
	C503.341949,358.692322 503.953979,354.458740 504.564850,350.233429 
	C500.060333,350.233429 495.758148,350.233429 490.471680,350.294037 
M707.905579,369.440399 
	C705.953552,362.934540 704.001526,356.428680 702.086060,350.044861 
	C696.624512,349.358795 693.706543,351.306763 691.909912,356.515503 
	C688.394714,366.706787 684.316284,376.723663 680.006470,386.610229 
	C678.510132,390.042633 675.568726,392.828491 673.436951,396.009857 
	C672.732727,397.060791 672.498047,398.426300 671.831360,400.238678 
	C678.515686,400.238678 684.343384,400.385437 690.151917,400.116730 
	C691.335022,400.062042 692.445862,398.444397 693.590027,397.547241 
	C693.318115,397.078491 693.046204,396.609711 692.774292,396.140930 
	C691.298889,396.140930 689.823486,396.139191 688.348083,396.141296 
	C684.443909,396.146851 683.279968,394.416138 684.740906,390.743927 
	C688.474792,381.358734 685.297302,383.264252 696.662964,382.756927 
	C704.527588,382.405884 704.479553,382.655548 706.626892,390.174713 
	C707.624329,393.667450 707.396912,395.955322 702.948120,396.342072 
	C701.781555,396.443481 700.774963,398.384033 698.981750,400.203613 
	C707.704163,400.203613 714.655640,400.203613 721.792114,400.203613 
	C721.924377,398.720642 722.024109,397.602020 722.150574,396.183350 
	C717.179993,396.018402 715.212280,392.883728 713.983032,388.735992 
	C712.143250,382.528137 710.049377,376.395538 707.905579,369.440399 
M394.193176,392.089447 
	C389.691193,378.065704 385.189240,364.041962 380.700592,350.013855 
	C373.483612,350.207062 373.483978,350.207214 370.993805,356.531097 
	C366.926270,366.860718 363.057465,377.275848 358.671478,387.468445 
	C357.320801,390.607300 354.490540,393.091492 352.475433,395.971771 
	C351.736450,397.028015 351.395874,398.362976 350.590302,400.225769 
	C357.272522,400.225769 363.082947,400.085541 368.882202,400.279510 
	C372.243744,400.391968 372.335571,398.852875 371.559631,396.154449 
	C370.306671,396.154449 369.157379,396.194305 368.011597,396.147614 
	C362.809448,395.935669 362.233734,395.075592 363.878845,390.047607 
	C366.266083,382.751465 366.269409,382.573120 375.746521,382.749481 
	C385.059937,382.922821 382.410339,381.357635 385.372925,389.865784 
	C386.654266,393.545624 386.504425,395.924103 381.751923,396.356537 
	C380.619476,396.459595 379.663116,398.497620 378.184509,400.134003 
	C386.734436,400.134003 393.673645,400.134003 400.612885,400.134003 
	C400.916992,399.730835 401.221069,399.327637 401.525177,398.924469 
	C400.649231,397.897736 399.879608,396.748230 398.870972,395.874695 
	C397.543579,394.725067 396.028259,393.792450 394.193176,392.089447 
M216.353317,355.103027 
	C224.933304,355.856476 225.841003,356.735687 227.506668,366.874878 
	C229.204926,365.565643 231.352875,364.765625 231.673492,363.501984 
	C232.633057,359.720428 232.877609,355.757416 233.392426,351.931427 
	C224.943512,349.350342 215.635620,349.044067 209.047394,351.034546 
	C196.741776,354.752411 188.980560,366.482697 190.286621,379.389526 
	C191.580795,392.178955 199.545486,400.281647 212.332565,400.711121 
	C217.877670,400.897369 223.507645,399.556702 229.033096,398.548279 
	C230.249481,398.326294 231.818726,396.731689 232.132401,395.492493 
	C233.055161,391.847260 233.428619,388.062958 234.085831,383.897675 
	C232.287964,383.995209 230.865997,384.072357 229.535904,384.144531 
	C225.877762,393.521088 222.192993,396.443756 214.948975,395.860199 
	C207.450485,395.256165 201.778397,390.217346 200.037033,382.007416 
	C199.288803,378.479767 198.976944,374.731934 199.242310,371.141449 
	C199.973801,361.244629 205.537506,355.966888 216.353317,355.103027 
M270.913696,374.477173 
	C270.899872,379.635101 271.253448,384.832977 270.699097,389.932129 
	C270.463257,392.101166 268.344696,394.074890 267.047668,396.115723 
	C266.239258,397.387695 265.367035,398.619141 264.210999,400.331604 
	C276.479004,400.331604 287.563995,400.331604 299.028229,400.331604 
	C299.791656,395.028198 300.563721,389.664734 301.335785,384.301270 
	C300.912903,383.980377 300.490051,383.659485 300.067169,383.338562 
	C298.747192,384.522217 296.527344,385.530792 296.257324,386.918701 
	C294.807129,394.372742 292.458069,395.709747 283.184998,395.690704 
	C279.524689,395.683197 277.746704,394.063202 277.923431,390.178101 
	C278.361633,380.542633 278.616089,370.898682 278.921143,361.257416 
	C279.023224,358.030701 278.960571,354.888275 283.258789,353.980164 
	C284.090149,353.804535 284.529327,351.772736 285.289246,350.332062 
	C279.002808,350.332062 273.364594,350.181274 267.747681,350.459778 
	C266.630280,350.515198 265.594360,352.213806 264.520844,353.154694 
	C264.659088,353.549988 264.797333,353.945282 264.935577,354.340576 
	C270.619965,353.595947 271.228943,356.789215 270.989441,361.009888 
	C270.754120,365.156647 270.923798,369.326324 270.913696,374.477173 
M175.789062,355.656250 
	C177.243393,353.747528 182.121872,354.885773 180.565506,350.320831 
	C174.759216,350.320831 168.950577,350.168243 163.163849,350.456024 
	C162.072418,350.510284 161.068161,352.317474 160.023697,353.315796 
	C160.252884,353.717072 160.482086,354.118378 160.711273,354.519653 
	C164.321533,354.074707 166.903397,354.644867 166.840073,358.945892 
	C166.688141,369.264160 166.763062,379.585541 166.680496,389.905121 
	C166.656219,392.938477 165.702072,395.270081 162.328873,396.355896 
	C161.147278,396.736237 160.494736,398.760071 159.409149,400.306091 
	C167.279388,400.306091 173.900955,400.306091 180.718811,400.306091 
	C180.893341,398.661072 181.023575,397.433655 181.155807,396.187469 
	C173.779572,395.837891 173.646683,395.833527 173.879150,388.747498 
	C174.233566,377.944550 174.793243,367.148315 175.789062,355.656250 
z"/>
<path fill="#0B0B0B" opacity="1.000000" stroke="none" 
	d="
M136.975006,390.046234 
	C136.253799,380.823456 135.548294,372.038574 134.756027,362.173462 
	C133.787216,363.778961 133.150040,364.554108 132.808945,365.442902 
	C128.708069,376.128723 124.699463,386.850372 120.521942,397.505859 
	C119.992294,398.856812 118.637581,399.884277 117.665131,401.061615 
	C116.767014,399.868286 115.537949,398.802185 115.022766,397.461670 
	C110.631416,386.035980 106.369743,374.560486 100.865837,363.152100 
	C100.062584,373.818176 99.259331,384.484253 98.432915,395.457977 
	C100.726395,395.784210 102.301750,396.008270 104.254890,396.286102 
	C104.094116,397.516907 103.934547,398.738495 103.751648,400.138733 
	C98.585854,400.138733 93.620598,400.138733 87.863785,400.138733 
	C88.399475,398.729095 88.594048,396.714447 89.350967,396.474579 
	C93.556007,395.142181 93.473778,391.594849 93.860519,388.392944 
	C94.897583,379.806946 95.719902,371.195251 96.689354,362.600739 
	C97.494080,355.466492 97.267456,355.094391 89.607246,352.548492 
	C90.862473,351.766693 92.113762,350.978363 93.379433,350.213867 
	C93.496597,350.143097 93.705132,350.230957 93.871391,350.233063 
	C106.342201,350.390015 106.287346,350.408844 110.413956,362.367523 
	C113.160240,370.326111 116.090683,378.221191 119.377205,387.364655 
	C123.696640,375.465149 127.640594,364.909637 131.320145,354.262695 
	C132.339615,351.312775 133.584839,349.913605 136.955521,350.310303 
	C140.391129,350.714661 143.911392,350.399719 148.895981,350.399719 
	C147.388046,352.069427 146.614304,353.689087 145.432297,354.082672 
	C142.620041,355.019073 141.322021,356.497040 141.568848,359.531982 
	C142.418381,369.977478 143.188339,380.429840 143.919067,390.884430 
	C144.168716,394.456177 145.640366,396.547699 149.752701,395.965546 
	C149.964539,396.418610 150.176376,396.871704 150.388199,397.324799 
	C149.068970,398.236938 147.798981,399.837067 146.421524,399.935669 
	C141.800751,400.266327 137.141647,400.061218 132.274628,400.061218 
	C130.537338,395.349396 139.796143,395.712250 136.975006,390.046234 
z"/>
<path fill="#444444" opacity="1.000000" stroke="none" 
	d="
M885.938049,365.000000 
	C885.938049,380.459076 885.938049,395.418152 885.938049,410.693268 
	C879.409424,410.693268 873.164368,410.693268 866.571777,410.693268 
	C866.571777,387.391571 866.571777,364.015045 866.571777,340.312836 
	C872.809875,340.312836 879.045288,340.312836 885.938049,340.312836 
	C885.938049,348.321198 885.938049,356.410614 885.938049,365.000000 
z"/>
<path fill="#828282" opacity="1.000000" stroke="none" 
	d="
M909.825928,357.001709 
	C909.825867,375.128571 909.825867,392.755737 909.825867,410.694458 
	C903.133362,410.694458 896.903381,410.694458 890.367737,410.694458 
	C890.367737,387.311798 890.367737,364.054993 890.367737,340.393402 
	C896.544250,340.393402 902.781067,340.393402 909.826050,340.393402 
	C909.826050,345.649323 909.826050,351.075653 909.825928,357.001709 
z"/>
<path fill="#000000" opacity="1.000000" stroke="none" 
	d="
M862.024292,395.996155 
	C862.024292,401.137787 862.024292,405.780090 862.024292,410.999756 
	C858.736938,410.999756 855.633789,410.999756 852.530640,410.999756 
	C849.385620,410.999756 846.240601,410.999756 842.819885,410.999756 
	C842.819885,387.316895 842.819885,363.920746 842.819885,340.261963 
	C848.942383,340.261963 855.204346,340.261963 862.024292,340.261963 
	C862.024292,358.660126 862.024292,377.078491 862.024292,395.996155 
z"/>
<path fill="#0A0A0A" opacity="1.000000" stroke="none" 
	d="
M425.169434,400.556671 
	C418.940796,400.473175 413.169678,400.473175 406.115631,400.473175 
	C407.554932,398.606262 408.274414,396.674622 409.489349,396.283966 
	C413.160980,395.103363 413.742401,392.416443 413.761292,389.275726 
	C413.820312,379.464203 413.751923,369.651276 413.891541,359.841156 
	C413.946899,355.949402 413.023529,353.421967 407.812866,354.880981 
	C407.722046,354.387787 407.631226,353.894623 407.540405,353.401459 
	C408.654297,352.370972 409.733124,350.495941 410.887787,350.447998 
	C418.022278,350.151764 425.195892,349.897858 432.315125,350.322754 
	C446.734772,351.183441 455.621124,359.253326 456.674438,371.836670 
	C457.722107,384.351715 449.008820,396.632935 436.468231,399.755066 
	C432.996216,400.619476 429.248260,400.375580 425.169434,400.556671 
M447.810638,372.054016 
	C444.954590,359.158905 435.159393,352.814575 421.897400,355.811218 
	C421.585114,367.410309 421.126801,379.171417 421.122955,390.932678 
	C421.122467,392.480743 423.215088,395.072357 424.729462,395.406189 
	C433.509735,397.341675 443.624603,395.450653 446.870483,383.273773 
	C447.752441,379.965027 447.574402,376.373657 447.810638,372.054016 
z"/>
<path fill="#0C0C0C" opacity="1.000000" stroke="none" 
	d="
M786.202332,354.994934 
	C783.436829,354.489807 780.309265,354.818268 782.571899,350.282227 
	C790.389404,350.282227 798.504517,349.801483 806.541687,350.388367 
	C820.640198,351.417877 829.510803,359.683655 830.127075,371.476105 
	C830.858948,385.479248 822.245300,397.231567 808.939148,399.987885 
	C805.743042,400.649933 802.366089,400.544250 799.069397,400.592957 
	C793.142883,400.680511 787.214111,400.617676 779.801025,400.617676 
	C781.345520,398.615417 782.277771,397.308014 783.314270,396.089203 
	C784.511841,394.680969 786.868835,393.362427 786.883850,391.984894 
	C787.017700,379.720215 786.744751,367.451080 786.202332,354.994934 
M818.244629,388.538025 
	C822.623230,379.770935 823.460327,370.776276 817.628113,362.583313 
	C812.484070,355.357056 804.409607,354.661072 795.507324,355.116364 
	C795.167358,367.329437 794.651672,379.095886 794.726746,390.858551 
	C794.737244,392.514130 797.435608,395.280609 799.232178,395.598602 
	C806.431702,396.872894 813.202759,395.789886 818.244629,388.538025 
z"/>
<path fill="#0A0A0A" opacity="1.000000" stroke="none" 
	d="
M571.329407,396.250122 
	C575.488342,395.176697 575.806213,392.206665 575.817627,389.084869 
	C575.852356,379.587860 575.719055,370.086975 575.961304,360.595520 
	C576.069214,356.371185 575.167297,353.670258 569.956787,354.370026 
	C569.804321,353.935242 569.651855,353.500427 569.499390,353.065643 
	C570.699097,352.146637 571.858765,350.500244 573.105286,350.431702 
	C579.249023,350.093719 585.416748,350.087769 591.573975,350.153748 
	C593.713135,350.176605 595.909485,350.521118 597.969360,351.106873 
	C602.392578,352.364655 605.755920,354.883942 606.638062,359.749786 
	C607.492859,364.464722 605.754639,368.238037 602.213806,371.265961 
	C601.211243,372.123260 600.069824,372.818115 598.710938,373.788208 
	C599.892883,374.318329 600.901733,374.767212 601.907715,375.222504 
	C611.454895,379.543518 613.051575,389.662872 604.446411,395.734741 
	C600.373230,398.608826 594.778320,399.992523 589.697998,400.608307 
	C583.013000,401.418549 576.155701,400.807373 568.312927,400.807373 
	C569.464294,398.866486 570.202271,397.622528 571.329407,396.250122 
M584.783386,377.268372 
	C584.172485,380.397369 583.161987,383.509491 583.028931,386.658661 
	C582.688660,394.709045 585.894470,397.287628 593.892944,395.745605 
	C598.015747,394.950836 600.907471,392.759552 601.380798,388.267700 
	C601.827881,384.025391 600.428345,380.416565 596.317993,379.012024 
	C592.961792,377.865234 589.239197,377.790497 584.783386,377.268372 
M595.987488,370.576843 
	C599.346741,367.234375 600.164978,363.206268 597.800659,359.237061 
	C594.778687,354.163910 589.531006,354.748230 584.160889,354.683899 
	C583.825195,360.693054 583.514038,366.263397 583.115112,373.405518 
	C587.712524,372.530701 591.546387,371.801178 595.987488,370.576843 
z"/>
<path fill="#0B0B0B" opacity="1.000000" stroke="none" 
	d="
M532.626831,379.304688 
	C527.751526,384.971069 529.930908,395.205688 535.837708,396.371521 
	C536.498047,398.985992 535.954651,400.327454 532.771973,400.188049 
	C527.634277,399.962982 522.479553,400.127563 515.934387,400.127563 
	C517.216614,398.314178 517.856079,396.361786 518.918518,396.095123 
	C522.773438,395.127716 523.188110,392.515411 523.176636,389.277069 
	C523.142456,379.619293 523.128662,369.959656 523.288635,360.303772 
	C523.351624,356.497467 522.992065,353.456024 517.609253,354.581390 
	C517.856934,352.810608 518.028198,351.585846 518.227966,350.157776 
	C524.784302,350.157776 531.091919,350.146179 537.399536,350.160492 
	C546.716187,350.181641 552.941956,353.460388 554.692017,359.242645 
	C556.637207,365.669678 553.193909,371.824799 544.825500,376.890167 
	C544.545044,377.059906 544.292603,377.275909 543.506348,377.851685 
	C549.543396,384.513458 551.236816,394.950714 561.884338,397.271484 
	C560.752625,401.223053 553.824463,402.730957 550.139954,399.614594 
	C547.917786,397.735016 546.223083,395.133301 544.620361,392.644226 
	C542.465576,389.297913 540.908081,385.537048 538.533752,382.374939 
	C537.388794,380.850067 534.962463,380.287323 532.626831,379.304688 
M539.649963,374.524414 
	C545.758179,371.363281 548.292358,366.658875 546.723877,361.392761 
	C545.273804,356.524261 539.978760,354.218048 531.530640,355.138123 
	C531.530640,361.253632 531.530640,367.463837 531.530640,374.141052 
	C533.722168,374.344299 536.313782,374.584656 539.649963,374.524414 
z"/>
<path fill="#0A0A0A" opacity="1.000000" stroke="none" 
	d="
M734.907471,371.868835 
	C734.915527,367.892761 734.857300,364.396057 734.946899,360.903137 
	C735.049438,356.907166 735.179077,352.999146 728.134033,354.864380 
	C728.255981,354.253174 728.377991,353.641998 728.500000,353.030792 
	C729.601501,352.122375 730.686401,350.453491 731.807312,350.428864 
	C739.111694,350.268646 746.450928,350.107147 753.724915,350.657501 
	C759.610046,351.102814 764.742554,353.453094 766.331482,360.068146 
	C767.670898,365.644745 765.022705,371.190460 759.085754,375.237518 
	C757.890198,376.052429 756.632385,376.776001 754.934937,377.833466 
	C761.098694,384.479797 762.824280,394.803284 773.224243,397.268433 
	C772.450256,400.808868 766.583984,402.593842 762.650330,400.170258 
	C760.751221,399.000153 759.081238,397.169891 757.835388,395.288971 
	C755.364746,391.558899 752.984375,387.716278 751.082031,383.677460 
	C749.188904,379.658081 746.544556,378.261749 741.954834,379.821960 
	C741.954834,382.936249 742.035767,386.250824 741.933838,389.559784 
	C741.812744,393.494446 742.199402,396.889099 748.106323,395.898438 
	C748.160950,396.376373 748.215576,396.854340 748.270203,397.332275 
	C747.091919,398.267670 745.953796,399.944305 744.728394,400.010773 
	C739.292419,400.305573 733.831482,400.138458 727.644287,399.075531 
	C728.729309,398.007141 729.636475,396.415222 730.934631,395.974304 
	C734.079895,394.905914 734.850830,392.699066 734.858826,389.824982 
	C734.874939,383.999939 734.890625,378.174927 734.907471,371.868835 
M755.233765,357.099213 
	C751.423340,356.060638 747.612854,355.022064 743.231934,353.827972 
	C742.829895,361.399414 742.500610,367.599976 742.177673,373.681671 
	C751.248596,376.477539 754.643188,373.648682 756.974121,369.842102 
	C759.533020,365.663177 759.420654,361.373962 755.233765,357.099213 
z"/>
<path fill="#0A0A0A" opacity="1.000000" stroke="none" 
	d="
M636.379517,351.221588 
	C648.868469,347.753143 659.343506,350.703003 664.945618,359.032837 
	C671.028992,368.078308 670.286377,381.855164 663.230896,390.845612 
	C656.391663,399.560547 643.988342,403.167358 633.564697,399.472351 
	C618.527527,394.141907 613.910522,372.498169 625.330872,359.265320 
	C628.155212,355.992767 632.410950,353.955475 636.379517,351.221588 
M647.790649,395.782990 
	C650.864807,393.681000 654.667175,392.154633 656.871704,389.365356 
	C662.673035,382.025513 661.289246,366.983337 654.823181,360.153778 
	C646.867554,351.750916 632.798584,354.143219 629.352112,365.143188 
	C627.702942,370.406586 627.738525,376.698975 628.774353,382.192932 
	C630.639038,392.083740 636.897034,396.213715 647.790649,395.782990 
z"/>
<path fill="#0A0A0A" opacity="1.000000" stroke="none" 
	d="
M337.098907,376.797302 
	C331.283325,376.994476 325.839355,376.994476 319.888397,376.994476 
	C319.888397,382.405670 319.998627,387.039368 319.848083,391.664581 
	C319.754028,394.554138 321.286682,395.657562 323.757324,395.613525 
	C327.573822,395.545532 331.557709,395.787048 335.131378,394.739746 
	C337.131470,394.153595 338.434326,391.222717 340.076996,389.371094 
	C341.310547,387.980560 342.584961,386.626282 343.841156,385.255798 
	C344.348450,385.614899 344.855743,385.974030 345.363068,386.333130 
	C344.670288,390.848785 343.977539,395.364441 343.225403,400.266968 
	C330.819916,400.266968 318.593933,400.266968 305.161163,400.266968 
	C306.455688,398.576477 307.183350,396.602173 308.341003,396.305450 
	C311.884979,395.397095 312.699310,392.952118 312.728180,389.963165 
	C312.827911,379.642700 312.698120,369.318787 312.906128,359.001251 
	C312.991211,354.781830 310.373199,354.239685 306.918732,354.289551 
	C306.798950,353.754761 306.679199,353.219971 306.559418,352.685181 
	C307.977814,351.893372 309.384644,350.439880 310.816437,350.414886 
	C321.784943,350.223328 332.758301,350.309753 344.310852,350.309753 
	C343.790924,354.331238 343.232147,358.653107 342.631622,363.298065 
	C341.194000,363.480499 339.804749,363.656799 338.955597,363.764587 
	C337.968201,360.965881 337.560852,356.881866 336.219940,356.548004 
	C331.816254,355.451782 327.074524,355.627167 322.460327,355.587158 
	C321.960480,355.582855 321.079376,357.329315 321.000000,358.314026 
	C320.641663,362.759186 320.508240,367.222504 320.282745,371.909302 
	C326.329620,371.909302 332.102417,371.909302 338.431885,371.909302 
	C338.099915,373.529083 337.785248,375.064606 337.098907,376.797302 
z"/>
<path fill="#0A0A0A" opacity="1.000000" stroke="none" 
	d="
M490.963806,350.263733 
	C495.758148,350.233429 500.060333,350.233429 504.564850,350.233429 
	C503.953979,354.458740 503.341949,358.692322 502.678528,363.281189 
	C501.369202,363.470001 499.975342,363.670990 499.162140,363.788269 
	C498.018524,360.939514 497.504974,356.814209 495.974670,356.394257 
	C491.768463,355.240082 487.134277,355.520081 482.673615,355.574982 
	C482.105438,355.581970 481.133118,357.606445 481.083801,358.728607 
	C480.895325,363.017731 481.007599,367.320099 481.007599,372.100677 
	C483.699097,372.100677 486.661530,372.150787 489.621460,372.086182 
	C492.431427,372.024872 495.238770,371.843536 498.492249,371.694580 
	C498.249420,373.475708 498.039978,375.011932 497.762878,377.044373 
	C492.080139,377.044373 486.494507,377.044373 480.041870,377.044373 
	C480.041870,382.598358 479.888031,387.687622 480.176270,392.751709 
	C480.231537,393.722931 482.008545,395.358246 483.020050,395.380554 
	C487.320099,395.475433 491.728302,395.532593 495.890381,394.639923 
	C497.572906,394.279083 499.347290,391.650818 499.974213,389.699158 
	C500.901733,386.811707 501.999695,385.300934 505.514557,386.429779 
	C504.828735,390.873291 504.133453,395.378265 503.380371,400.257629 
	C490.984619,400.257629 478.745941,400.257629 465.025604,400.257629 
	C466.758240,398.415680 467.971008,397.309845 468.959900,396.030914 
	C470.350372,394.232697 472.625793,392.344177 472.695496,390.427795 
	C473.082581,379.782562 473.130096,369.109375 472.737976,358.466278 
	C472.669647,356.612030 469.950256,354.855408 467.686005,352.126556 
	C468.121460,351.887299 469.535461,350.471771 471.002563,350.414368 
	C477.483948,350.160889 483.980560,350.298218 490.963806,350.263733 
z"/>
<path fill="#0A0A0A" opacity="1.000000" stroke="none" 
	d="
M707.984619,369.835693 
	C710.049377,376.395538 712.143250,382.528137 713.983032,388.735992 
	C715.212280,392.883728 717.179993,396.018402 722.150574,396.183350 
	C722.024109,397.602020 721.924377,398.720642 721.792114,400.203613 
	C714.655640,400.203613 707.704163,400.203613 698.981750,400.203613 
	C700.774963,398.384033 701.781555,396.443481 702.948120,396.342072 
	C707.396912,395.955322 707.624329,393.667450 706.626892,390.174713 
	C704.479553,382.655548 704.527588,382.405884 696.662964,382.756927 
	C685.297302,383.264252 688.474792,381.358734 684.740906,390.743927 
	C683.279968,394.416138 684.443909,396.146851 688.348083,396.141296 
	C689.823486,396.139191 691.298889,396.140930 692.774292,396.140930 
	C693.046204,396.609711 693.318115,397.078491 693.590027,397.547241 
	C692.445862,398.444397 691.335022,400.062042 690.151917,400.116730 
	C684.343384,400.385437 678.515686,400.238678 671.831360,400.238678 
	C672.498047,398.426300 672.732727,397.060791 673.436951,396.009857 
	C675.568726,392.828491 678.510132,390.042633 680.006470,386.610229 
	C684.316284,376.723663 688.394714,366.706787 691.909912,356.515503 
	C693.706543,351.306763 696.624512,349.358795 702.086060,350.044861 
	C704.001526,356.428680 705.953552,362.934540 707.984619,369.835693 
M701.286682,378.192200 
	C701.754822,377.718964 702.711121,377.097168 702.618958,376.794434 
	C700.804810,370.833588 698.868896,364.909821 696.617249,357.921783 
	C693.918152,365.397369 691.622253,371.756195 689.269592,378.272156 
	C693.538330,378.272156 697.000061,378.272156 701.286682,378.192200 
z"/>
<path fill="#0A0A0A" opacity="1.000000" stroke="none" 
	d="
M394.393433,392.427979 
	C396.028259,393.792450 397.543579,394.725067 398.870972,395.874695 
	C399.879608,396.748230 400.649231,397.897736 401.525177,398.924469 
	C401.221069,399.327637 400.916992,399.730835 400.612885,400.134003 
	C393.673645,400.134003 386.734436,400.134003 378.184509,400.134003 
	C379.663116,398.497620 380.619476,396.459595 381.751923,396.356537 
	C386.504425,395.924103 386.654266,393.545624 385.372925,389.865784 
	C382.410339,381.357635 385.059937,382.922821 375.746521,382.749481 
	C366.269409,382.573120 366.266083,382.751465 363.878845,390.047607 
	C362.233734,395.075592 362.809448,395.935669 368.011597,396.147614 
	C369.157379,396.194305 370.306671,396.154449 371.559631,396.154449 
	C372.335571,398.852875 372.243744,400.391968 368.882202,400.279510 
	C363.082947,400.085541 357.272522,400.225769 350.590302,400.225769 
	C351.395874,398.362976 351.736450,397.028015 352.475433,395.971771 
	C354.490540,393.091492 357.320801,390.607300 358.671478,387.468445 
	C363.057465,377.275848 366.926270,366.860718 370.993805,356.531097 
	C373.483978,350.207214 373.483612,350.207062 380.693909,350.016052 
	C385.189240,364.041962 389.691193,378.065704 394.393433,392.427979 
M378.195923,366.268677 
	C377.433746,363.863342 376.671539,361.458008 375.558472,357.945404 
	C372.810699,365.459290 370.505890,371.761902 367.959473,378.725189 
	C373.031799,378.496338 377.378296,378.300201 381.965210,378.093262 
	C380.665253,373.954529 379.573761,370.479584 378.195923,366.268677 
z"/>
<path fill="#0A0A0A" opacity="1.000000" stroke="none" 
	d="
M215.941864,355.102112 
	C205.537506,355.966888 199.973801,361.244629 199.242310,371.141449 
	C198.976944,374.731934 199.288803,378.479767 200.037033,382.007416 
	C201.778397,390.217346 207.450485,395.256165 214.948975,395.860199 
	C222.192993,396.443756 225.877762,393.521088 229.535904,384.144531 
	C230.865997,384.072357 232.287964,383.995209 234.085831,383.897675 
	C233.428619,388.062958 233.055161,391.847260 232.132401,395.492493 
	C231.818726,396.731689 230.249481,398.326294 229.033096,398.548279 
	C223.507645,399.556702 217.877670,400.897369 212.332565,400.711121 
	C199.545486,400.281647 191.580795,392.178955 190.286621,379.389526 
	C188.980560,366.482697 196.741776,354.752411 209.047394,351.034546 
	C215.635620,349.044067 224.943512,349.350342 233.392426,351.931427 
	C232.877609,355.757416 232.633057,359.720428 231.673492,363.501984 
	C231.352875,364.765625 229.204926,365.565643 227.506668,366.874878 
	C225.841003,356.735687 224.933304,355.856476 215.941864,355.102112 
z"/>
<path fill="#080808" opacity="1.000000" stroke="none" 
	d="
M270.914734,373.981567 
	C270.923798,369.326324 270.754120,365.156647 270.989441,361.009888 
	C271.228943,356.789215 270.619965,353.595947 264.935577,354.340576 
	C264.797333,353.945282 264.659088,353.549988 264.520844,353.154694 
	C265.594360,352.213806 266.630280,350.515198 267.747681,350.459778 
	C273.364594,350.181274 279.002808,350.332062 285.289246,350.332062 
	C284.529327,351.772736 284.090149,353.804535 283.258789,353.980164 
	C278.960571,354.888275 279.023224,358.030701 278.921143,361.257416 
	C278.616089,370.898682 278.361633,380.542633 277.923431,390.178101 
	C277.746704,394.063202 279.524689,395.683197 283.184998,395.690704 
	C292.458069,395.709747 294.807129,394.372742 296.257324,386.918701 
	C296.527344,385.530792 298.747192,384.522217 300.067169,383.338562 
	C300.490051,383.659485 300.912903,383.980377 301.335785,384.301270 
	C300.563721,389.664734 299.791656,395.028198 299.028229,400.331604 
	C287.563995,400.331604 276.479004,400.331604 264.210999,400.331604 
	C265.367035,398.619141 266.239258,397.387695 267.047668,396.115723 
	C268.344696,394.074890 270.463257,392.101166 270.699097,389.932129 
	C271.253448,384.832977 270.899872,379.635101 270.914734,373.981567 
z"/>
<path fill="#090909" opacity="1.000000" stroke="none" 
	d="
M175.527405,356.002747 
	C174.793243,367.148315 174.233566,377.944550 173.879150,388.747498 
	C173.646683,395.833527 173.779572,395.837891 181.155807,396.187469 
	C181.023575,397.433655 180.893341,398.661072 180.718811,400.306091 
	C173.900955,400.306091 167.279388,400.306091 159.409149,400.306091 
	C160.494736,398.760071 161.147278,396.736237 162.328873,396.355896 
	C165.702072,395.270081 166.656219,392.938477 166.680496,389.905121 
	C166.763062,379.585541 166.688141,369.264160 166.840073,358.945892 
	C166.903397,354.644867 164.321533,354.074707 160.711273,354.519653 
	C160.482086,354.118378 160.252884,353.717072 160.023697,353.315796 
	C161.068161,352.317474 162.072418,350.510284 163.163849,350.456024 
	C168.950577,350.168243 174.759216,350.320831 180.565506,350.320831 
	C182.121872,354.885773 177.243393,353.747528 175.527405,356.002747 
z"/>
<path fill="#FCFCFC" opacity="1.000000" stroke="none" 
	d="
M447.846741,372.483032 
	C447.574402,376.373657 447.752441,379.965027 446.870483,383.273773 
	C443.624603,395.450653 433.509735,397.341675 424.729462,395.406189 
	C423.215088,395.072357 421.122467,392.480743 421.122955,390.932678 
	C421.126801,379.171417 421.585114,367.410309 421.897400,355.811218 
	C435.159393,352.814575 444.954590,359.158905 447.846741,372.483032 
z"/>
<path fill="#FBFBFB" opacity="1.000000" stroke="none" 
	d="
M818.062500,388.869324 
	C813.202759,395.789886 806.431702,396.872894 799.232178,395.598602 
	C797.435608,395.280609 794.737244,392.514130 794.726746,390.858551 
	C794.651672,379.095886 795.167358,367.329437 795.507324,355.116364 
	C804.409607,354.661072 812.484070,355.357056 817.628113,362.583313 
	C823.460327,370.776276 822.623230,379.770935 818.062500,388.869324 
z"/>
<path fill="#F7F7F7" opacity="1.000000" stroke="none" 
	d="
M585.231201,377.254395 
	C589.239197,377.790497 592.961792,377.865234 596.317993,379.012024 
	C600.428345,380.416565 601.827881,384.025391 601.380798,388.267700 
	C600.907471,392.759552 598.015747,394.950836 593.892944,395.745605 
	C585.894470,397.287628 582.688660,394.709045 583.028931,386.658661 
	C583.161987,383.509491 584.172485,380.397369 585.231201,377.254395 
z"/>
<path fill="#F7F7F7" opacity="1.000000" stroke="none" 
	d="
M595.683838,370.824249 
	C591.546387,371.801178 587.712524,372.530701 583.115112,373.405518 
	C583.514038,366.263397 583.825195,360.693054 584.160889,354.683899 
	C589.531006,354.748230 594.778687,354.163910 597.800659,359.237061 
	C600.164978,363.206268 599.346741,367.234375 595.683838,370.824249 
z"/>
<path fill="#F9F9F9" opacity="1.000000" stroke="none" 
	d="
M539.277710,374.674683 
	C536.313782,374.584656 533.722168,374.344299 531.530640,374.141052 
	C531.530640,367.463837 531.530640,361.253632 531.530640,355.138123 
	C539.978760,354.218048 545.273804,356.524261 546.723877,361.392761 
	C548.292358,366.658875 545.758179,371.363281 539.277710,374.674683 
z"/>
<path fill="#F7F7F7" opacity="1.000000" stroke="none" 
	d="
M755.541504,357.339935 
	C759.420654,361.373962 759.533020,365.663177 756.974121,369.842102 
	C754.643188,373.648682 751.248596,376.477539 742.177673,373.681671 
	C742.500610,367.599976 742.829895,361.399414 743.231934,353.827972 
	C747.612854,355.022064 751.423340,356.060638 755.541504,357.339935 
z"/>
<path fill="#FCFCFC" opacity="1.000000" stroke="none" 
	d="
M647.381104,395.844940 
	C636.897034,396.213715 630.639038,392.083740 628.774353,382.192932 
	C627.738525,376.698975 627.702942,370.406586 629.352112,365.143188 
	C632.798584,354.143219 646.867554,351.750916 654.823181,360.153778 
	C661.289246,366.983337 662.673035,382.025513 656.871704,389.365356 
	C654.667175,392.154633 650.864807,393.681000 647.381104,395.844940 
z"/>
<path fill="#F0F0F0" opacity="1.000000" stroke="none" 
	d="
M700.874268,378.232178 
	C697.000061,378.272156 693.538330,378.272156 689.269592,378.272156 
	C691.622253,371.756195 693.918152,365.397369 696.617249,357.921783 
	C698.868896,364.909821 700.804810,370.833588 702.618958,376.794434 
	C702.711121,377.097168 701.754822,377.718964 700.874268,378.232178 
z"/>
<path fill="#F0F0F0" opacity="1.000000" stroke="none" 
	d="
M378.339111,366.636658 
	C379.573761,370.479584 380.665253,373.954529 381.965210,378.093262 
	C377.378296,378.300201 373.031799,378.496338 367.959473,378.725189 
	C370.505890,371.761902 372.810699,365.459290 375.558472,357.945404 
	C376.671539,361.458008 377.433746,363.863342 378.339111,366.636658 
z"/>
</svg>